<svg xmlns="http://www.w3.org/2000/svg" width="640" height="259" version="1.2"><path d="M55.8 180.5c9.4 0 21.5-3.2 28.8-11.1l-.1-43.1H59.1l-.1 4.1h20.8v36.8c-5.9 6.6-15.6 9.1-23.9 9.1-18.2 0-34.5-11.5-34.5-47.5 0-34.5 16.3-47.6 35.3-47.6 6.7 0 13.7 1.7 19 4.2v-4.5C70.8 78.7 62.8 77 56.5 77c-28.1 0-40 22.8-40 52.2 0 30.3 12.4 51.3 39.3 51.3zm124.7-1.5h4.8v-47.2h16.5l32.7 47.2h5.7l-33.5-47.8c15.2-2.4 24.8-12.6 24.8-26.7 0-15.5-10.9-25.8-34.7-25.8h-16.3zm4.8-51.3v-45h11.5c20 0 29.8 8.1 29.8 21.7 0 14.6-11 23.3-27.4 23.3zM328.6 179h4.7V78.6h-4.8zm159-100.3H419v4h31.8V179h4.8V82.7h32zm130.3 100.4h5.3L590.9 78.7h-6.7l-31.7 100.4h5.1l10.4-33.4h39.4zm-48.7-37.3 18-58.4h.6l18.3 58.4z" aria-label="GRITA" style="fill:#feeed9"/></svg>